# xmcd
# 
# Track frame offsets:
#     150
#     13921
#     31073
#     51767
#     65201
#     75848
#     105496
#     122603
#     133376
#     149431
#     166621
#     174818
# 
# Disc length: 2453
# 
# Revision: 0
# Processed by: cddbd v1.5.2PL0 Copyright (c) Steve Scherf et al.
# Submitted via: fre:ac v1.0.31
# 
DISCID=9609930c
DTITLE=Various Artist - Lego Batman Movie - Disc 1
DYEAR=2017
DGENRE=Soundtrack
TTITLE0=Patrick Stump - Whos The Batman
TTITLE1=DNCE - Forever
TTITLE2=Cutting Crew - I Just Died In Your Arms
TTITLE3=Kirsten Arian - Invincible
TTITLE4=Harry Nilsson - One
TTITLE5=Alesso feat. Tove Lo - Heroes (We Could Be) Hard Rock Sofa and Skidka Remix
TTITLE6=Alex Aiono - Man In The Mirror
TTITLE7=Oh Hush! feat. Will Arnett and Jeff Lewis - Friends Are Family
TTITLE8=Fraser Murray - I Found You
TTITLE9=Justin Tranter - Forever
TTITLE10=Richard Cheese and Lounge Against The Machine - Man in The Mirror
TTITLE11=Richard Cheese and Lounge Against The Machine - Everything Is Awesome
EXTD=
EXTT0=
EXTT1=
EXTT2=
EXTT3=
EXTT4=
EXTT5=
EXTT6=
EXTT7=
EXTT8=
EXTT9=
EXTT10=
EXTT11=
PLAYORDER=
